<?xml version="1.0" encoding="utf-8"?>
<!-- Generator: Adobe Illustrator 23.0.3, SVG Export Plug-In . SVG Version: 6.00 Build 0)  -->
<svg version="1.1" id="Layer_1" xmlns="http://www.w3.org/2000/svg" xmlns:xlink="http://www.w3.org/1999/xlink" x="0px" y="0px"
	 viewBox="0 0 2209 1080" style="enable-background:new 0 0 2209 1080;" xml:space="preserve">
<style type="text/css">
	.st0{fill:#2B94F3;}
	.st1{fill:#94D4BD;}
	.st2{fill:#69BC9B;}
	.st3{fill:#6F787B;}
	.st4{fill:none;stroke:#FFFFFF;stroke-width:3;stroke-miterlimit:10;}
	.st5{fill:none;stroke:#FFFFFF;stroke-width:3;stroke-miterlimit:10;stroke-dasharray:49.2523,19.7009;}
	.st6{fill:#1B5461;}
	.st7{fill:#13434F;}
	.st8{fill:#1CF6E3;}
	.st9{fill:#0E3038;}
	.st10{fill:#FFFFFF;}
	.st11{fill:#115B72;}
	.st12{fill:#0C353F;}
	.st13{fill:#082B33;}
	.st14{display:none;}
	.st15{display:inline;}
	.st16{fill:none;stroke:#FFFFFF;stroke-width:3.8762;stroke-miterlimit:10;}
	.st17{fill:none;stroke:#FFFFFF;stroke-width:2.6634;stroke-miterlimit:10;}
	.st18{fill:#FFFFFF;stroke:#44A0D5;stroke-width:0.646;stroke-miterlimit:10;}
	.st19{font-family:'ArialMT';}
	.st20{font-size:39.5579px;}
	.st21{fill:#44A0D5;stroke:#FFFFFF;stroke-width:3.3926;stroke-miterlimit:10;}
	.st22{fill:#44A0D5;stroke:#FFFFFF;stroke-width:5;stroke-miterlimit:10;}
	.st23{fill:none;stroke:#FFFFFF;stroke-width:3.6002;stroke-miterlimit:10;}
	.st24{fill:none;stroke:#FFFFFF;stroke-width:6;stroke-miterlimit:10;}
	.st25{fill:#FDFDFD;}
</style>
<g>
	<g>
		<rect class="st0" width="2209" height="1080"/>
		<path class="st1" d="M2151.96,674.41V559.65c0-213.63-134.2-219.55-134.2-219.55l-39.26-208.39l1.72,542.7H1929V547.56h-69.64
			v139.4h-48.23V557.09h-25.46v-49.81h-47.58v81.23h-59.05v-160.4h-55.05v245.03h-57.25v-49.62l-12.06-10.5v-55.99h-14.47
			l-4.82-116.17l-9.65,57.39h-12.86l-23.79-207.88c3.56-1.96,5.95-5.39,5.95-9.33c0-4.72-3.41-8.72-8.2-10.3l-4.51-39.43
			l-4.51,39.44c-4.76,1.59-8.16,5.58-8.16,10.29c0,3.93,2.37,7.36,5.92,9.31l-23.74,207.89h-12.86l-9.65-57.39l-4.82,116.17h-14.47
			v55.99l-12.06,10.5v98.53h-46.79V501.73h-99.48v220.31h-147.37v-66.11h-47.63v-106.2h47.63l-53.2-46.31H887.5l-56.66,49.32h40.01
			v76.23h-47.19l-110.6-45.55h-28.45v-48.34h-66.03V415.83h-90.71v243.71h-77.6v-38.38h-43.32V473.68h-80.96v162.06h-56.07V484.76
			h-29.6v-57.91H185v94.43h-68.66V334.8H52.33v284.87H0v382.23h1397.95h51.11h72.44h45.22H2209V715.06L2151.96,674.41z"/>
		<path class="st2" d="M57.04,814.49V699.73c0-213.63,177.28-219.55,177.28-219.55l-5.54,334.31H280V687.63h69.64v139.4h48.23
			V697.17h25.46v-49.81h47.58v81.23h59.05V568.18h55.05v245.03h57.25v-49.62l12.06-10.5V697.1h14.47l4.82-116.17l9.65,57.39h12.86
			l23.79-207.88c-3.56-1.96-5.95-5.39-5.95-9.33c0-4.72,3.41-8.72,8.2-10.3l4.51-39.43l4.51,39.44c4.76,1.59,8.16,5.58,8.16,10.29
			c0,3.93-2.37,7.36-5.92,9.31l23.74,207.89h12.86l9.65-57.39l4.82,116.17h14.47v55.99l12.06,10.5v98.53h46.79V641.8h99.48v220.31
			h147.37V796h47.63V689.8h-47.63l53.2-46.31h163.61l56.66,49.32h-40.01v76.23h47.19l110.6-45.55h28.45v-48.34h66.03V555.9h90.71
			v243.71h77.6v-38.38h43.32V613.75h80.96v162.06h56.07V624.84h29.6v-57.91H2024v94.43h68.66V474.88h64.01v284.87H2209v242.15
			H811.05h-51.11H687.5h-45.22H0V855.14L57.04,814.49z"/>
		<rect y="999.96" class="st3" width="2209" height="80.04"/>
		<g>
			<g>
				<g>
					<line class="st4" x1="-0.19" y1="1040.04" x2="27.42" y2="1040.04"/>
					<line class="st5" x1="49.17" y1="1040.04" x2="2170.51" y2="1040.04"/>
					<line class="st4" x1="2181.39" y1="1040.04" x2="2209" y2="1040.04"/>
				</g>
			</g>
		</g>
	</g>
	<g>
		<g>
			<g>
				<g>
					<g>
						<polygon class="st6" points="244.14,422.73 190.54,422.73 190.54,339.76 163.81,339.76 163.81,422.73 110.21,422.73 
							110.21,500.93 163.81,500.93 163.81,529.21 190.54,529.21 190.54,500.93 244.14,500.93 						"/>
						<rect x="80.42" y="490.38" class="st7" width="193.52" height="62.88"/>
						<rect x="46.9" y="529.21" class="st6" width="260.54" height="472.67"/>
						<rect x="80.42" y="560.53" class="st8" width="193.52" height="23.09"/>
						<rect x="80.42" y="607.64" class="st8" width="193.52" height="23.09"/>
						<rect x="80.42" y="654.75" class="st8" width="193.52" height="23.09"/>
						<rect x="80.42" y="701.86" class="st8" width="193.52" height="23.09"/>
						<rect x="80.42" y="748.98" class="st8" width="193.52" height="23.09"/>
						<rect x="80.42" y="796.09" class="st8" width="193.52" height="23.09"/>
						<rect x="80.42" y="843.2" class="st8" width="193.52" height="23.09"/>
						<rect x="80.42" y="890.31" class="st8" width="193.52" height="23.09"/>
						<rect x="110.21" y="935.73" class="st9" width="133.92" height="66.17"/>
					</g>
				</g>
				<g>
					<g id="XMLID_1_">
						<g id="XMLID_4_">
							<path class="st10" d="M628.59,159.29c-2.03,0-4.06-0.67-5.61-2.02c-17.41-15.13-40.56-23.46-65.19-23.46
								s-47.78,8.33-65.19,23.46c-3.1,2.69-8.12,2.69-11.22,0s-3.1-7.06,0-9.75c20.41-17.73,47.55-27.5,76.41-27.5
								c28.87,0,56,9.76,76.41,27.5c3.1,2.69,3.1,7.06,0,9.75C632.65,158.61,630.62,159.29,628.59,159.29z"/>
						</g>
						<g id="XMLID_3_">
							<path class="st10" d="M602.93,181.57c-2.03,0-4.06-0.67-5.61-2.02c-21.8-18.94-57.27-18.94-79.07,0
								c-3.1,2.69-8.12,2.69-11.22,0s-3.1-7.06,0-9.75c27.99-24.31,73.53-24.31,101.52,0c3.1,2.69,3.1,7.06,0,9.75
								C606.99,180.9,604.96,181.57,602.93,181.57z"/>
						</g>
						<g id="XMLID_2_">
							<path class="st10" d="M577.8,203.4c-2.03,0-4.06-0.67-5.61-2.02c-3.85-3.34-8.97-5.18-14.41-5.18s-10.56,1.84-14.41,5.18
								c-3.09,2.69-8.12,2.69-11.22,0s-3.1-7.06,0-9.75c6.85-5.95,15.95-9.22,25.63-9.22s18.78,3.28,25.63,9.22
								c3.1,2.69,3.1,7.06,0,9.75C581.87,202.73,579.84,203.4,577.8,203.4z"/>
						</g>
					</g>
					<g>
						<g>
							<rect x="618.24" y="179.5" class="st7" width="107.26" height="254.13"/>
							<rect x="487.4" y="323.66" class="st6" width="238.11" height="678.24"/>
							<rect x="514.93" y="348.2" class="st8" width="24.22" height="571.49"/>
							<rect x="567.87" y="348.2" class="st8" width="24.22" height="571.49"/>
							<rect x="620.81" y="348.2" class="st8" width="24.22" height="571.49"/>
							<rect x="673.75" y="348.2" class="st8" width="24.22" height="571.49"/>
							<rect x="514.93" y="940.43" class="st9" width="183.04" height="61.47"/>
						</g>
						<rect x="633.15" y="191.95" class="st8" width="31.93" height="27.73"/>
						<rect x="633.15" y="271.83" class="st8" width="31.93" height="27.73"/>
						<rect x="678.49" y="191.95" class="st8" width="31.93" height="27.73"/>
						<rect x="678.49" y="231.33" class="st8" width="31.93" height="27.73"/>
					</g>
				</g>
				<g>
					<g id="XMLID_9_">
						<g id="XMLID_12_">
							<path class="st10" d="M997.39,410.65c-2.03,0-4.06-0.67-5.61-2.02c-17.41-15.13-40.57-23.46-65.19-23.46
								c-24.63,0-47.78,8.33-65.19,23.46c-3.1,2.69-8.12,2.69-11.22,0s-3.1-7.06,0-9.75c20.41-17.73,47.55-27.5,76.41-27.5
								c28.87,0,56,9.76,76.41,27.5c3.1,2.69,3.1,7.06,0,9.75C1001.45,409.98,999.42,410.65,997.39,410.65z"/>
						</g>
						<g id="XMLID_11_">
							<path class="st10" d="M971.74,432.94c-2.03,0-4.06-0.67-5.61-2.02c-21.8-18.94-57.27-18.94-79.07,0
								c-3.1,2.69-8.12,2.69-11.22,0s-3.1-7.06,0-9.75c27.99-24.31,73.53-24.31,101.52,0c3.1,2.69,3.1,7.06,0,9.75
								C975.8,432.26,973.77,432.94,971.74,432.94z"/>
						</g>
						<g id="XMLID_10_">
							<path class="st10" d="M946.61,454.76c-2.03,0-4.06-0.67-5.61-2.02c-3.85-3.34-8.97-5.18-14.41-5.18s-10.56,1.84-14.41,5.18
								c-3.09,2.69-8.12,2.69-11.22,0s-3.1-7.06,0-9.75c6.85-5.95,15.95-9.22,25.63-9.22s18.78,3.28,25.63,9.22
								c3.1,2.69,3.1,7.06,0,9.75C950.67,454.09,948.64,454.76,946.61,454.76z"/>
						</g>
					</g>
					<g>
						<g>
							<rect x="812.54" y="549.2" class="st6" width="220.6" height="450.76"/>
							<path class="st8" d="M1033.14,636.69v-8.03h-40.18v-80.81h-9.24v80.81H857.93v-80.81h-9.24v80.81h-36.14v8.03h36.14V761.9
								h-36.14v8.03h36.14v230.03h9.24V769.93h125.79v230.03h9.24V769.93h40.18v-8.03h-40.18V636.69H1033.14z M857.93,761.9V636.69
								h125.79V761.9H857.93z"/>
							<rect x="791.41" y="531.02" class="st7" width="262.85" height="33.64"/>
						</g>
						<polygon class="st7" points="1083.6,865.39 762.07,865.39 762.07,865.39 762.07,1000.66 1083.6,1000.66 						"/>
						<rect x="836.39" y="933.02" class="st9" width="178.5" height="67.63"/>
					</g>
				</g>
				<g>
					<g id="XMLID_13_">
						<g id="XMLID_16_">
							<path class="st10" d="M1396.62,564.38c-2.03,0-4.06-0.67-5.61-2.02c-17.41-15.13-40.56-23.46-65.19-23.46
								c-24.63,0-47.78,8.33-65.19,23.46c-3.1,2.69-8.12,2.69-11.22,0s-3.1-7.06,0-9.75c20.41-17.73,47.55-27.5,76.41-27.5
								c28.87,0,56,9.76,76.41,27.5c3.1,2.69,3.1,7.06,0,9.75C1400.68,563.71,1398.65,564.38,1396.62,564.38z"/>
						</g>
						<g id="XMLID_15_">
							<path class="st10" d="M1370.97,586.67c-2.03,0-4.06-0.67-5.61-2.02c-21.8-18.94-57.27-18.94-79.07,0
								c-3.1,2.69-8.12,2.69-11.22,0s-3.1-7.06,0-9.75c27.99-24.31,73.53-24.31,101.52,0c3.1,2.69,3.1,7.06,0,9.75
								C1375.03,585.99,1373,586.67,1370.97,586.67z"/>
						</g>
						<g id="XMLID_14_">
							<path class="st10" d="M1345.84,608.49c-2.03,0-4.06-0.67-5.61-2.02c-3.85-3.34-8.97-5.18-14.41-5.18
								c-5.44,0-10.56,1.84-14.41,5.18c-3.09,2.69-8.12,2.69-11.22,0s-3.1-7.06,0-9.75c6.85-5.95,15.95-9.22,25.63-9.22
								s18.78,3.28,25.63,9.22c3.1,2.69,3.1,7.06,0,9.75C1349.9,607.82,1347.87,608.49,1345.84,608.49z"/>
						</g>
					</g>
					<g>
						<g>
							<g>
								<rect x="1130.57" y="788.04" class="st11" width="400.07" height="213.99"/>
								<rect x="1130.57" y="788.04" class="st12" width="202.41" height="213.99"/>
							</g>
							<polygon class="st11" points="1197.83,776.42 1528.19,776.42 1411.67,712.6 1230.41,712.6 							"/>
							<polygon class="st7" points="1346.94,776.42 1230.41,712.6 1113.88,776.42 1097.85,776.42 1097.85,792.82 1546.27,792.82 
								1546.27,776.42 							"/>
							<rect x="1174.77" y="923.56" class="st13" width="114.16" height="78.21"/>
						</g>
						<path class="st7" d="M1553.79,905.72h-2.48l0.15-45.31l-86.79-0.14v0.13l-80.07-0.13l-0.03,8.66l14.88,0.01l-0.12,36.65
							l-14.74-0.01l-0.04,10.72l89.13,0.15v-0.13l80.07,0.13L1553.79,905.72z M1419.19,905.62l-8.06-0.01l0.12-36.65l8.06,0.01
							L1419.19,905.62z M1439.06,905.65l-8.06-0.01l0.12-36.65l8.06,0.01L1439.06,905.65z M1459.44,905.69l-8.58-0.02l0.12-36.65
							l8.57,0.02L1459.44,905.69z M1479.39,905.58l-8.15-0.01l0.12-36.65l8.15,0.01L1479.39,905.58z M1499.26,905.62l-8.06-0.01
							l0.12-36.65l8.06,0.01L1499.26,905.62z M1519.12,905.65l-8.06-0.01l0.12-36.65l8.06,0.01L1519.12,905.65z M1539.5,905.69
							l-8.57-0.02l0.12-36.65l8.57,0.02L1539.5,905.69z"/>
						<rect x="1355.3" y="811.05" class="st8" width="70.72" height="30.18"/>
						<rect x="1444.32" y="811.05" class="st8" width="70.72" height="30.18"/>
						<rect x="1355.3" y="932.49" class="st8" width="70.72" height="30.18"/>
						<rect x="1444.32" y="932.49" class="st8" width="70.72" height="30.18"/>
						<rect x="1174.77" y="811.05" class="st8" width="114.16" height="30.18"/>
						<rect x="1174.77" y="858.17" class="st8" width="114.16" height="30.18"/>
					</g>
				</g>
				<g>
					<g id="XMLID_17_">
						<g id="XMLID_20_">
							<path class="st10" d="M1873.12,214.95c-2.03,0-4.06-0.67-5.61-2.02c-17.41-15.13-40.56-23.46-65.19-23.46
								c-24.63,0-47.78,8.33-65.19,23.46c-3.1,2.69-8.12,2.69-11.22,0s-3.1-7.06,0-9.75c20.41-17.73,47.55-27.5,76.41-27.5
								s56,9.76,76.41,27.5c3.1,2.69,3.1,7.06,0,9.75C1877.18,214.28,1875.15,214.95,1873.12,214.95z"/>
						</g>
						<g id="XMLID_19_">
							<path class="st10" d="M1847.47,237.24c-2.03,0-4.06-0.67-5.61-2.02c-21.8-18.94-57.27-18.94-79.07,0
								c-3.1,2.69-8.12,2.69-11.22,0s-3.1-7.06,0-9.75c27.99-24.31,73.53-24.31,101.52,0c3.1,2.69,3.1,7.06,0,9.75
								C1851.53,236.56,1849.5,237.24,1847.47,237.24z"/>
						</g>
						<g id="XMLID_18_">
							<path class="st10" d="M1822.34,259.07c-2.03,0-4.06-0.67-5.61-2.02c-3.85-3.34-8.97-5.18-14.41-5.18
								c-5.44,0-10.56,1.84-14.41,5.18c-3.09,2.69-8.12,2.69-11.22,0s-3.1-7.06,0-9.75c6.85-5.95,15.95-9.22,25.63-9.22
								s18.78,3.28,25.63,9.22c3.1,2.69,3.1,7.06,0,9.75C1826.4,258.39,1824.37,259.07,1822.34,259.07z"/>
						</g>
					</g>
					<g>
						<rect x="1791.7" y="285.35" class="st7" width="19.42" height="136.74"/>
						<polygon class="st11" points="1852.76,350.62 1750.06,350.62 1729.88,402.02 1872.94,402.02 						"/>
						<polygon class="st7" points="1877.52,469.23 1725.3,469.23 1695.39,393.04 1907.43,393.04 						"/>
						<polygon class="st7" points="1878.83,945 1725.41,945 1765.91,451.99 1838.33,451.99 						"/>
						<rect x="1785.61" y="492.72" class="st8" width="31.6" height="27.45"/>
						<rect x="1785.61" y="574.5" class="st8" width="31.6" height="27.45"/>
						<rect x="1785.61" y="656.28" class="st8" width="31.6" height="27.45"/>
						<rect x="1785.61" y="738.07" class="st8" width="31.6" height="27.45"/>
						<rect x="1785.61" y="819.85" class="st8" width="31.6" height="27.45"/>
						<rect x="1696.3" y="888.1" class="st7" width="212.04" height="113.8"/>
						<rect x="1743.62" y="930.47" class="st13" width="117.39" height="71.43"/>
					</g>
				</g>
				<g>
					<g>
						<rect x="1939.26" y="509.4" class="st7" width="213.83" height="492.62"/>
						<rect x="1939.26" y="565.47" class="st12" width="142.02" height="436.55"/>
						<rect x="1957.27" y="585.26" class="st8" width="102.86" height="19.65"/>
						<rect x="1957.27" y="629.3" class="st8" width="102.86" height="19.65"/>
						<rect x="1957.27" y="673.34" class="st8" width="102.86" height="19.65"/>
						<rect x="1957.27" y="717.38" class="st8" width="102.86" height="19.65"/>
						<rect x="1957.27" y="761.42" class="st8" width="102.86" height="19.65"/>
						<rect x="1957.27" y="805.46" class="st8" width="102.86" height="19.65"/>
						<rect x="1957.27" y="849.49" class="st8" width="102.86" height="19.65"/>
						<rect x="1957.27" y="893.53" class="st8" width="102.86" height="19.65"/>
						<rect x="1957.27" y="938.23" class="st13" width="102.86" height="63.8"/>
					</g>
				</g>
			</g>
			<g>
				<g id="XMLID_5_">
					<g id="XMLID_8_">
						<path class="st10" d="M314.51,715.87c-2.03,0-4.06-0.67-5.61-2.02c-17.41-15.13-40.56-23.46-65.19-23.46
							s-47.78,8.33-65.19,23.46c-3.1,2.69-8.12,2.69-11.22,0s-3.1-7.06,0-9.75c20.41-17.73,47.55-27.5,76.41-27.5
							c28.87,0,56,9.76,76.41,27.5c3.1,2.69,3.1,7.06,0,9.75C318.57,715.2,316.54,715.87,314.51,715.87z"/>
					</g>
					<g id="XMLID_7_">
						<path class="st10" d="M288.86,738.16c-2.03,0-4.06-0.67-5.61-2.02c-21.8-18.94-57.27-18.94-79.07,0
							c-3.1,2.69-8.12,2.69-11.22,0s-3.1-7.06,0-9.75c27.99-24.31,73.53-24.31,101.52,0c3.1,2.69,3.1,7.06,0,9.75
							C292.92,737.48,290.89,738.16,288.86,738.16z"/>
					</g>
					<g id="XMLID_6_">
						<path class="st10" d="M263.73,759.99c-2.03,0-4.06-0.67-5.61-2.02c-3.85-3.34-8.97-5.18-14.41-5.18s-10.56,1.84-14.41,5.18
							c-3.09,2.69-8.12,2.69-11.22,0s-3.1-7.06,0-9.75c6.85-5.95,15.95-9.22,25.63-9.22c9.68,0,18.78,3.28,25.63,9.22
							c3.1,2.69,3.1,7.06,0,9.75C267.79,759.31,265.76,759.99,263.73,759.99z"/>
					</g>
				</g>
			</g>
			<g class="st14">
				<g class="st15">
					<g>
						<rect x="480.47" y="269.26" class="st10" width="17.71" height="5.13"/>
					</g>
					<g>
						<path class="st10" d="M447.67,274.39h-32.8v-5.13h32.8V274.39z M382.07,274.39h-32.8v-5.13h32.8V274.39z"/>
					</g>
					<g>
						<polygon class="st10" points="301.72,287.21 295.82,287.21 295.82,269.26 316.48,269.26 316.48,274.39 301.72,274.39 						
							"/>
					</g>
					<g>
						<rect x="295.82" y="313.15" class="st10" width="5.9" height="25.94"/>
					</g>
					<g>
						<polygon class="st10" points="301.72,382.98 281.06,382.98 281.06,377.85 295.82,377.85 295.82,365.03 301.72,365.03 						
							"/>
					</g>
					<g>
						<rect x="213.69" y="377.85" class="st10" width="17.71" height="5.13"/>
					</g>
				</g>
				<g class="st15">
					<rect x="175.96" y="144.19" class="st10" width="3.85" height="15.81"/>
				</g>
				<g class="st15">
					<path class="st10" d="M889.54,335.56h-5.9v-30.77h5.9V335.56z M867.9,292.82h-35.42v-5.13h35.42V292.82z M797.07,292.82h-3.63
						v-32.75h5.9v30.18h-2.28v2.57H797.07z M799.35,229.31h-5.9v-20.93h-5.42v-5.13h11.32V229.31z M752.61,208.38h-35.42v-5.13
						h35.42V208.38z M681.77,208.38h-35.42v-5.13h35.42V208.38z"/>
				</g>
				<g class="st15">
					<path class="st10" d="M1325.01,470.62h-5.9v-30.77h5.9V470.62z M1293.65,436.34h-35.42v-5.13h35.42V436.34z M1222.81,436.34
						h-35.42v-5.13h35.42V436.34z M1151.98,436.34h-35.42v-5.13h35.42V436.34z M1081.15,436.34h-35.42v-5.13h35.42V436.34z
						 M1010.31,436.34H974.9v-5.13h35.42v5.13H1010.31z"/>
				</g>
				<g class="st15">
					<path class="st10" d="M1461.44,673.3h-35.42v-5.13h35.42V673.3z M1482.63,655.82h-5.9v-30.77h5.9V655.82z M1482.63,594.28h-5.9
						v-30.77h5.9V594.28z M1482.63,532.75h-5.9v-30.77h5.9V532.75z M1482.63,471.22h-5.9v-30.77h5.9V471.22z M1482.63,409.69h-5.9
						v-30.77h5.9V409.69z M1482.63,348.15h-5.9v-30.77h5.9V348.15z M1596.27,312.76h-18.62v-5.13h12.71v-14.59h5.9v19.72H1596.27z
						 M1542.24,312.76h-35.42v-5.13h35.42V312.76z M1596.27,262.27h-5.9V246h22.59v5.13h-16.69V262.27z"/>
				</g>
				<g class="st15">
					<path class="st10" d="M2038.48,454.76h-5.9v-1.34h5.9V454.76z M2038.48,422.65h-5.9v-30.77h5.9V422.65z M2038.48,361.12h-5.9
						v-30.77h5.9V361.12z M2023.32,312.76h-35.42v-5.13h35.42V312.76z M1952.48,312.76h-35.42v-5.13h35.42V312.76z M1881.65,312.76
						h-35.42v-5.13h35.42V312.76z M1810.82,312.76h-35.42v-5.13h35.42V312.76z"/>
				</g>
			</g>
		</g>
	</g>
</g>
<g>
	<path class="st16" d="M161.45,257.24c17.07-8.58,23.79-30.32,14.96-49.01c-8.95-18.95-30.49-27.57-48.1-19.26
		c-3.71,1.75-6.94,4.12-9.66,6.93"/>
	<path class="st17" d="M155.25,248.58c11.73-5.9,16.34-20.84,10.28-33.67c-6.15-13.02-20.95-18.95-33.05-13.23
		c-2.55,1.2-4.77,2.83-6.64,4.76"/>
	<ellipse class="st10" cx="143.43" cy="224.98" rx="11.81" ry="11.33"/>
	<path class="st18" d="M162.5,268.32v28.91c0,1.78-1.45,3.23-3.23,3.23h-97.9c-1.78,0-3.23-1.45-3.23-3.23v-97.9
		c0-1.78,1.45-3.23,3.23-3.23h53.46l-13.23,7.95H67.45c0,0-1.94-1.56-2.15,6.11l-0.22,81.32c0,0-0.09,1.4,2.68,1.48h84.22
		c0,0,2.42-1.64,2.34-3.98l0.17-14.89L162.5,268.32z"/>
	<text transform="matrix(1 0 0 1 69.0566 280.9957)" class="st10 st19 st20">RFID</text>
</g>
<g>
	<g>
		<path class="st21" d="M1955.52,124.16c-7.34-7.61-11.38-17.65-11.38-28.27c0-22.33,17.97-40.5,40.05-40.5s40.05,18.17,40.05,40.5
			c0,10.44-3.92,20.35-11.05,27.92l-0.25,0.27l-5.56-8.14l0.49-0.33l5.15,7.53c6.86-7.42,10.64-17.08,10.64-27.24
			c0-22.01-17.7-39.91-39.46-39.91s-39.46,17.9-39.46,39.91c0,10.46,3.98,20.36,11.22,27.86L1955.52,124.16z"/>
	</g>
	<g>
		
			<rect x="1969.45" y="65.86" transform="matrix(0.7231 -0.6908 0.6908 0.7231 490.4177 1382.7219)" class="st21" width="0.59" height="27.7"/>
	</g>
	<g>
		<path class="st21" d="M1984.97,104.5c-4.89,0-8.86-4.01-8.86-8.94s3.98-8.94,8.86-8.94s8.86,4.01,8.86,8.94
			S1989.86,104.5,1984.97,104.5z M1984.97,87.21c-4.56,0-8.27,3.74-8.27,8.34c0,4.6,3.71,8.34,8.27,8.34s8.27-3.74,8.27-8.34
			C1993.24,90.96,1989.53,87.21,1984.97,87.21z"/>
	</g>
	<g>
		<path class="st21" d="M1941.98,68.59l3.73-4.11l-6.44-6.87l6.91-7.14l6.24,6.38l4.71-3.95v15L1941.98,68.59z M1940.08,57.61
			l6.43,6.86l-3.14,3.46l13.16-0.6V54.17l-4.16,3.48l-6.2-6.34L1940.08,57.61z"/>
	</g>
	<g>
		<path class="st22" d="M1984.97,163.77c-37.61,0-68.21-30.6-68.21-68.21s30.6-68.21,68.21-68.21s68.21,30.6,68.21,68.21
			S2022.58,163.77,1984.97,163.77z M1984.97,27.94c-37.29,0-67.62,30.33-67.62,67.62s30.33,67.62,67.62,67.62
			s67.62-30.33,67.62-67.62S2022.25,27.94,1984.97,27.94z"/>
	</g>
</g>
<g>
	<rect x="345.22" y="883.62" class="st23" width="63.16" height="101.51"/>
	<rect x="332.25" y="984" class="st23" width="90.23" height="17.48"/>
	<rect x="354.62" y="896.42" class="st23" width="43.54" height="30.31"/>
	<path class="st23" d="M408.98,912.3h20.21l7.46,15.4v43.78c0,0-6.74,16.6-14.43,0v-29.83c0,0,0.72-5.77-12.27-4.81"/>
	<path class="st23" d="M422.69,913.02v14.19c0,0,3.31,8.35,12.45,8.11"/>
</g>
<g>
	<path class="st24" d="M353.38,376.64l-0.48-2.27v-79.63c-12.87-23.3-20.86,0-20.86,0v79.82c-5.55,3.6-9.26,9.99-9.26,17.31
		c0,11.26,8.76,20.39,19.57,20.39s19.57-9.13,19.57-20.39C361.9,384.45,359.06,380.21,353.38,376.64z"/>
	<path class="st10" d="M346.41,382.09v-43.77h-7.45v43.47c-3.8,1.46-6.52,5.31-6.52,9.84c0,5.78,4.43,10.47,9.89,10.47
		c5.46,0,9.89-4.69,9.89-10.47C352.23,387.38,349.84,383.73,346.41,382.09z"/>
	<path class="st10" d="M401.88,336.4c0,7.68-5.92,13.9-13.21,13.9c-7.3,0-13.21-6.22-13.21-13.9s7.75-15.58,13.86-21.92
		C394.13,320.12,401.88,328.72,401.88,336.4z"/>
</g>
<path class="st10" d="M231.8,942.83l-10.8-27.7c-3.52-8.22-11.97-7.51-11.97-7.51h-56.12c-9.39,1.17-11.5,7.28-11.5,7.28
	l-11.74,27.47c-8.22,2.35-10.8,13.38-10.8,13.38v34.28h10.33v14.09c0.7,4.86,7.3,6.39,7.3,6.39c7.25,0.75,10-7.25,10-7.25l0.5-13.15
	h67.51v10.96c0,0-0.08,7.28,6.73,9.86c6.81,2.58,11.97-8.45,11.97-8.45v-12.44h9.39V956C242.37,946.12,231.8,942.83,231.8,942.83z
	 M138.82,970.57c-5.24,0-9.49-4.25-9.49-9.49s4.25-9.49,9.49-9.49s9.49,4.25,9.49,9.49S144.06,970.57,138.82,970.57z M223.35,970.57
	c-5.24,0-9.49-4.25-9.49-9.49s4.25-9.49,9.49-9.49s9.49,4.25,9.49,9.49S228.59,970.57,223.35,970.57z"/>
<g>
	<path class="st10" d="M1898.84,988.01V917.9c0,0-0.76-5.72,8-4.95h59.82c0,0,4.95,1.52,4.57,7.24v65.54c0,0-1.12,4.81-4.47,5.06
		h-19.34c0,0-2.48-13.89-15.62-15.5c0,0-16.62-0.37-18.72,16.12l-11.04-0.12C1902.04,991.28,1898.87,990.08,1898.84,988.01z"/>
	<path class="st10" d="M1975.02,983.43v-47.46c0,0-1.26-3.52,6.03-3.26h21.85l17.83,25.36v25.86c0,0,1,4.02-8.54,3.01
		c0,0-0.75-12.05-17.58-14.31c0,0-14.56,4.27-15.32,14.81C1979.29,987.45,1976.27,986.44,1975.02,983.43z"/>
	<ellipse class="st10" cx="1995.61" cy="991.4" rx="10.3" ry="10.92"/>
	<ellipse class="st10" cx="1930.32" cy="991.4" rx="10.3" ry="10.92"/>
</g>
<g id="XMLID_21_">
	<g id="XMLID_24_">
		<path class="st10" d="M2059.33,265.95c-2.03,0-4.06-0.67-5.61-2.02c-17.41-15.13-40.56-23.46-65.19-23.46
			c-24.63,0-47.78,8.33-65.19,23.46c-3.1,2.69-8.12,2.69-11.22,0s-3.1-7.06,0-9.75c20.41-17.73,47.55-27.5,76.41-27.5
			c28.87,0,56,9.76,76.41,27.5c3.1,2.69,3.1,7.06,0,9.75C2063.39,265.28,2061.36,265.95,2059.33,265.95z"/>
	</g>
	<g id="XMLID_23_">
		<path class="st10" d="M2033.68,288.24c-2.03,0-4.06-0.67-5.61-2.02c-21.8-18.94-57.27-18.94-79.07,0c-3.1,2.69-8.12,2.69-11.22,0
			s-3.1-7.06,0-9.75c27.99-24.31,73.53-24.31,101.52,0c3.1,2.69,3.1,7.06,0,9.75C2037.74,287.56,2035.71,288.24,2033.68,288.24z"/>
	</g>
	<g id="XMLID_22_">
		<path class="st10" d="M2008.55,310.07c-2.03,0-4.06-0.67-5.61-2.02c-3.85-3.34-8.97-5.18-14.41-5.18
			c-5.44,0-10.56,1.84-14.41,5.18c-3.09,2.69-8.12,2.69-11.22,0s-3.1-7.06,0-9.75c6.85-5.95,15.95-9.22,25.63-9.22
			s18.78,3.28,25.63,9.22c3.1,2.69,3.1,7.06,0,9.75C2012.61,309.39,2010.58,310.07,2008.55,310.07z"/>
	</g>
</g>
<path class="st25" d="M1062.36,107.67c-3.22,0-6.29,0.51-9.15,1.4c0.2-1.71,0.3-3.45,0.3-5.21c0-28.24-26.35-51.13-58.86-51.13
	c-25.8,0-47.67,14.44-55.62,34.51c-1.07-0.08-2.15-0.14-3.24-0.14c-21.58,0-39.08,15.2-39.08,33.95S914.21,155,935.79,155h126.57
	c15.04,0,27.24-10.59,27.24-23.66S1077.4,107.67,1062.36,107.67z"/>
<g id="XMLID_44_">
	<g id="XMLID_47_">
		<path class="st10" d="M183.98,88.64c-2.03,0-4.06-0.67-5.61-2.02c-17.41-15.13-40.57-23.46-65.19-23.46
			c-24.63,0-47.78,8.33-65.19,23.46c-3.1,2.69-8.12,2.69-11.22,0c-3.1-2.69-3.1-7.06,0-9.75c20.41-17.73,47.55-27.5,76.41-27.5
			c28.87,0,56,9.76,76.41,27.5c3.1,2.69,3.1,7.06,0,9.75C188.04,87.97,186.01,88.64,183.98,88.64z"/>
	</g>
	<g id="XMLID_46_">
		<path class="st10" d="M158.32,110.93c-2.03,0-4.06-0.67-5.61-2.02c-21.8-18.94-57.27-18.94-79.07,0c-3.1,2.69-8.12,2.69-11.22,0
			s-3.1-7.06,0-9.75c27.99-24.31,73.53-24.31,101.52,0c3.1,2.69,3.1,7.06,0,9.75C162.38,110.25,160.35,110.93,158.32,110.93z"/>
	</g>
	<g id="XMLID_45_">
		<path class="st10" d="M133.19,132.75c-2.03,0-4.06-0.67-5.61-2.02c-3.85-3.34-8.97-5.18-14.41-5.18s-10.56,1.84-14.41,5.18
			c-3.09,2.69-8.12,2.69-11.22,0s-3.1-7.06,0-9.75c6.85-5.95,15.95-9.22,25.63-9.22s18.78,3.28,25.63,9.22c3.1,2.69,3.1,7.06,0,9.75
			C137.25,132.08,135.22,132.75,133.19,132.75z"/>
	</g>
</g>
<g>
	<g>
		<path class="st25" d="M1440.29,282.01c-3.22,0-6.29,0.51-9.15,1.4c0.2-1.71,0.3-3.45,0.3-5.21c0-28.24-26.35-51.13-58.86-51.13
			c-25.8,0-47.67,14.44-55.62,34.51c-1.07-0.08-2.15-0.14-3.24-0.14c-21.58,0-39.08,15.2-39.08,33.95s17.5,33.95,39.08,33.95h126.57
			c15.04,0,27.24-10.59,27.24-23.66C1467.53,292.6,1455.33,282.01,1440.29,282.01z"/>
		<g>
			<g>
				<rect x="1355.37" y="337.92" class="st1" width="31.42" height="7.84"/>
			</g>
			<g>
				<rect x="1355.37" y="348.42" class="st1" width="31.42" height="7.84"/>
			</g>
			<polygon class="st1" points="1400.84,308.86 1371.08,264.09 1341.32,308.86 1355.37,308.86 1355.37,334.52 1386.79,334.52 
				1386.79,308.86 			"/>
		</g>
	</g>
</g>
<g id="XMLID_25_">
	<g id="XMLID_28_">
		<path class="st10" d="M2037.33,806.95c-2.03,0-4.06-0.67-5.61-2.02c-17.41-15.13-40.56-23.46-65.19-23.46
			c-24.63,0-47.78,8.33-65.19,23.46c-3.1,2.69-8.12,2.69-11.22,0s-3.1-7.06,0-9.75c20.41-17.73,47.55-27.5,76.41-27.5
			c28.87,0,56,9.76,76.41,27.5c3.1,2.69,3.1,7.06,0,9.75C2041.39,806.28,2039.36,806.95,2037.33,806.95z"/>
	</g>
	<g id="XMLID_27_">
		<path class="st10" d="M2011.68,829.24c-2.03,0-4.06-0.67-5.61-2.02c-21.8-18.94-57.27-18.94-79.07,0c-3.1,2.69-8.12,2.69-11.22,0
			s-3.1-7.06,0-9.75c27.99-24.31,73.53-24.31,101.52,0c3.1,2.69,3.1,7.06,0,9.75C2015.74,828.56,2013.71,829.24,2011.68,829.24z"/>
	</g>
	<g id="XMLID_26_">
		<path class="st10" d="M1986.55,851.07c-2.03,0-4.06-0.67-5.61-2.02c-3.85-3.34-8.97-5.18-14.41-5.18
			c-5.44,0-10.56,1.84-14.41,5.18c-3.09,2.69-8.12,2.69-11.22,0s-3.1-7.06,0-9.75c6.85-5.95,15.95-9.22,25.63-9.22
			s18.78,3.28,25.63,9.22c3.1,2.69,3.1,7.06,0,9.75C1990.61,850.39,1988.58,851.07,1986.55,851.07z"/>
	</g>
</g>
<g id="XMLID_29_">
	<g id="XMLID_32_">
		<path class="st10" d="M1449.33,92.95c-2.03,0-4.06-0.67-5.61-2.02c-17.41-15.13-40.56-23.46-65.19-23.46
			c-24.63,0-47.78,8.33-65.19,23.46c-3.1,2.69-8.12,2.69-11.22,0s-3.1-7.06,0-9.75c20.41-17.73,47.55-27.5,76.41-27.5
			c28.87,0,56,9.76,76.41,27.5c3.1,2.69,3.1,7.06,0,9.75C1453.39,92.28,1451.36,92.95,1449.33,92.95z"/>
	</g>
	<g id="XMLID_31_">
		<path class="st10" d="M1423.68,115.24c-2.03,0-4.06-0.67-5.61-2.02c-21.8-18.94-57.27-18.94-79.07,0c-3.1,2.69-8.12,2.69-11.22,0
			s-3.1-7.06,0-9.75c27.99-24.31,73.53-24.31,101.52,0c3.1,2.69,3.1,7.06,0,9.75C1427.74,114.56,1425.71,115.24,1423.68,115.24z"/>
	</g>
	<g id="XMLID_30_">
		<path class="st10" d="M1398.55,137.07c-2.03,0-4.06-0.67-5.61-2.02c-3.85-3.34-8.97-5.18-14.41-5.18
			c-5.44,0-10.56,1.84-14.41,5.18c-3.09,2.69-8.12,2.69-11.22,0s-3.1-7.06,0-9.75c6.85-5.95,15.95-9.22,25.63-9.22
			s18.78,3.28,25.63,9.22c3.1,2.69,3.1,7.06,0,9.75C1402.61,136.39,1400.58,137.07,1398.55,137.07z"/>
	</g>
</g>
<g>
	<g>
		<g>
			<rect x="1968.44" y="427.28" class="st1" width="31.42" height="7.84"/>
		</g>
		<g>
			<rect x="1968.44" y="437.78" class="st1" width="31.42" height="7.84"/>
		</g>
		<polygon class="st1" points="2013.91,398.23 1984.15,353.45 1954.39,398.23 1968.44,398.23 1968.44,423.88 1999.86,423.88 
			1999.86,398.23 		"/>
	</g>
</g>
</svg>
