<?xml version="1.0" encoding="utf-8"?>
<!-- Generator: Adobe Illustrator 23.0.3, SVG Export Plug-In . SVG Version: 6.00 Build 0)  -->
<svg version="1.1" id="Warstwa_1" xmlns="http://www.w3.org/2000/svg" xmlns:xlink="http://www.w3.org/1999/xlink" x="0px" y="0px"
	 viewBox="0 0 173.2 122" style="enable-background:new 0 0 173.2 122;" xml:space="preserve">
<style type="text/css">
	.st0{fill-rule:evenodd;clip-rule:evenodd;fill:#0081C5;}
	.st1{fill-rule:evenodd;clip-rule:evenodd;fill:#F06022;}
	.st2{fill-rule:evenodd;clip-rule:evenodd;fill:#006293;}
</style>
<g>
	<path class="st0" d="M157.2,27.8c4.1,6.9,5.6,10.6,5.5,18.8c0,3.9-2.3,8.6,1.5,9.9c4.7,1.6,5.2-4.5,5.4-7.5
		c1.2-14.8-6.2-29.3-19-36.8l-8.2-3.7c-1.6-0.6-2.9-1.2-4.6-0.2c-2.9,1.7-2.2,5.2,0.3,6.3c1,0.4,2.2,0.6,3.4,1.1
		C147.6,18,153.8,22,157.2,27.8z"/>
	<path class="st0" d="M133.2,24c1.4,2.3,3.3,1.6,7.4,3.8c7.5,4.1,11.6,12.4,10.4,20.8c-0.4,2.3-0.7,2.7,0.4,4.6
		c0.9,1.5,5.6,3.3,6.5-2.8c0.1-0.6,0.1-0.7,0.2-1.3c1.2-10.8-3.5-20.8-12.8-26.8c-1.9-1.2-3.2-1.7-5.2-2.5c-1.1-0.4-1.6-0.5-2.7-0.8
		C133.7,17.9,131.8,21.6,133.2,24z"/>
	<path class="st0" d="M129.8,35c2,3.4,5,0.1,9,6.8c2.6,4.5-0.8,6.1,1.3,9.5c1.2,2,5.6,2.7,6.5-2.2c2.6-13.8-11.5-21.3-15.5-18.7
		C129.4,31.4,129.1,33.8,129.8,35z"/>
	<path class="st0" d="M110.3,93.7c-1.6,7-7.8,12.7-14.2,14.7c-2.8,0.9-6.3,1.1-10,1.1H31.6c-7,0-10.8-1-14.7-4.3
		C7,96.9,9.4,80.1,21.6,75.2c3-1.2,4.4-1.2,8.4-1.2c-0.1-0.8-0.4-1.4-0.6-2c-0.5-1.6-0.8-3.8-0.7-5.6c0.3-6.6,2.8-11.2,8.1-14.7
		c4.2-2.8,10.3-3.5,15.1-1.9c1.3,0.4,2.4,1.2,3.5,1.5c0.9-1.9,1.2-2.8,2.8-4.8c1.2-1.6,2.4-2.7,3.9-3.9c7.4-5.7,17.5-6.1,25-0.9
		l4.4-4.3c0.9,0.2,2.1,0.9,3.5,1.5c-4.3-4.3-11.4-7.9-17.9-7.9c-5.9,0-9.2,0.1-14.8,2.9c-3.1,1.5-7.2,4.5-9.1,7
		c-1.7,2.2-1.4,0.8-5.5,0.8c-5.5,0-7.7,0.2-12.8,2.7c-5.2,2.6-9.6,7.4-11.8,12.8c-1.4,3.5-1.8,5.6-1.8,10.5
		c-1.1,0.5-2.3,0.8-3.5,1.4c-5.7,2.9-9.9,6.9-12.4,12.8c-1.1,2.6-1.8,5.4-1.9,8.2v3.4c0.2,3.2,1,6.4,2.5,9.3c1.5,3,2.6,4.5,4.9,6.8
		c3.8,3.8,10,7.3,15.9,7.3h64.7c3.4,0,8.1-1.6,10.4-2.8c6-3,10.3-7.2,13.4-13.3c1.7-3.4,2.7-6.6,2.9-10.5v-2.8
		c-1.1,1.4-1.9,3.2-2.8,6.3H110.3z"/>
	<path class="st1" d="M109,52.3c6.1-1.2,11,3.1,12,8c1.3,6.2-3,11.2-8,12.2C99.6,75.1,95.5,54.9,109,52.3L109,52.3z M80,58.1v8.4
		c14.5,3.8,6.9,11.6,6.2,14.9l5.6,5.7c3.3-0.7,11.2-8.3,14.9,6.2h8.4c3.8-14.5,11.5-6.9,14.9-6.2l5.6-5.7
		c-0.7-3.3-8.3-11.1,6.2-14.9v-8.4c-14.5-3.8-6.9-11.6-6.2-14.9l-5.6-5.7c-3.3,0.7-11.2,8.3-14.9-6.2h-8.4
		c-3.8,14.5-11.6,6.9-14.9,6.2l-5.7,5.6C86.9,46.5,94.5,54.4,80,58.1z"/>
	<path class="st0" d="M104.2,56.7c0.1,0.7,0.1,1.3,0.1,1.9c0,1.5,0.2,3.3-0.2,4.7c1.4,0.4,3.3,2.2,4.5,3.2c0.8,0.6,1.2,1.3,1.9,2
		c0.7,0.7,1.2,1.5,1.8,2.2c-0.1,0-0.2,0-0.3,0.1C102.9,72.6,99.1,61.7,104.2,56.7z"/>
	<path class="st2" d="M64.4,71c0,1.9,1.3,3,2.9,2.7c0.8-0.1,1.5-0.2,2.3-0.4c0.7-0.1,1.7-0.3,2.4-0.4c-0.1,0.4-8.8,15.5-9.4,16.6
		c-0.9-0.2-1.7-0.9-3.7-0.3c-0.4,0.1-0.8,0.3-1.2,0.4c-0.3-0.2-0.3-0.3-0.6-0.5l-2.9-2.6c-0.5-0.3-0.7-0.7-1.2-1.1l-4.7-4.2
		c0.4-1.6,0.3-0.7,0.3-2.6c0-2.6-3.2-5.6-7.1-4c-2.7,1.1-4,5-1.9,7.7c0.2,0.3,0.4,0.4,0.6,0.7c-0.2,0.6-1,2.6-1.3,3.4l-2.8,6.9
		c-0.2,0.6-0.4,1.1-0.7,1.7c-0.2,0.6-0.5,1.2-0.7,1.8c-1.6-0.4-2.6-0.6-4.3,0.3c-0.8-0.6-1.5-1.3-2.3-1.9l-1.7-1.5
		c-0.7-0.5-2.4-2.2-2.9-2.4c-1.2-0.5-2.4,0.4-2.4,1.5c0,1,0.9,1.5,1.4,2c0.2,0.2,0.3,0.3,0.4,0.4l3.2,2.8c0.3,0.3,0.6,0.5,0.9,0.8
		c0.3,0.3,0.6,0.6,1,0.8c-0.1,0.9-0.2,0.4-0.2,2.4c0,1.4,0.8,2.4,1.6,3.2c0.8,0.8,2.4,1.4,3.5,1.3c1.5-0.1,2.6-0.6,3.4-1.5
		c1.3-1.3,1.8-3.2,1.3-5.1c-0.1-0.5-0.4-0.6-0.2-1.1l5.1-12.5c0.3-0.7,0.6-1.5,0.9-2.2c1,0,1.8-0.2,2.5-0.5c0.4,0.3,0.9,0.7,1.2,1
		c0.2,0.2,0.3,0.4,0.5,0.5l7.1,6.5c0.3,0.2,0.3,0.4,0.6,0.6c-1.5,3.2,1.9,8.3,6.7,6.4c2.3-0.9,3.6-3.6,2.9-6.1
		c-0.2-0.6-0.1-0.4,0.5-1.5l8.2-14.4c0.2-0.4,0.2-0.6,0.6-0.7c0,0.6,0.1,1.2,0.2,1.8c0.2,1.2,0.2,2.2,1.1,3C77.5,82,80,81,80,78.8
		c0-1-0.3-2.3-0.5-3.3l-1.1-6.6c-0.7-2.6-4-1.5-5.8-1.2l-6.5,1.1C65.3,69,64.4,69.9,64.4,71z"/>
</g>
</svg>
