<?xml version="1.0" encoding="utf-8"?>
<!-- Generator: Adobe Illustrator 24.0.2, SVG Export Plug-In . SVG Version: 6.00 Build 0)  -->
<svg version="1.1" id="Isolation_Mode" xmlns="http://www.w3.org/2000/svg" xmlns:xlink="http://www.w3.org/1999/xlink" x="0px"
	 y="0px" viewBox="0 0 1366 768" style="enable-background:new 0 0 1366 768;" xml:space="preserve">
<style type="text/css">
	.st0{fill:#DEFF64;}
	.st1{fill:#A8D06F;}
	.st2{fill:#96C333;}
	.st3{fill:#78AB1D;}
	.st4{fill-rule:evenodd;clip-rule:evenodd;fill:#603C1A;}
	.st5{fill-rule:evenodd;clip-rule:evenodd;fill:#1A6C3C;}
	.st6{fill-rule:evenodd;clip-rule:evenodd;fill:#FFFFFF;}
	.st7{fill:#FFFFFF;}
	.st8{fill:#FCFBFA;}
</style>
<g>
	<g>
		<g>
			<path class="st0" d="M74.94,73.16c-0.01-3.19-0.41-6.05-0.84-9.08c-0.21-1.51-0.43-3.03-0.6-4.61l1.48-0.21
				c0.17,1.56,0.38,3.06,0.59,4.54c0.42,2.96,0.85,6.02,0.86,9.35L74.94,73.16z"/>
			<path class="st0" d="M105.9,45.71c-8.74,3.15-31.33,2.41-31.43,32.42h0v21.95h1.97V78.26C106.19,77,103.97,47.94,105.9,45.71z"/>
			<path class="st0" d="M52.15,53.67c4.34,0.88,17.01,0.88,20.3,24.59C58.33,79.38,52.15,53.67,52.15,53.67z"/>
			<path class="st0" d="M62.52,27.63c0,0-6,25.25,11.03,32.13c0.14,0.06,0.28,0.13,0.42,0.18c-0.01-0.03-0.02-0.08-0.02-0.11
				c0.01,0.02,0.01,0.04,0.02,0.05c0.25,0.32,0.47,0.1,0.61-0.18c0,0.03,0,0.05,0,0.08C83.05,37.18,67.43,30.65,62.52,27.63z"/>
			<path class="st0" d="M75.94,85.27l-1.49-0.05c0.04-1.46-0.61-2.98-1.1-4c-0.31-0.64-0.67-1.28-1.07-1.92
				c-0.21-0.33-0.44-0.61-0.68-0.9c-0.23-0.27-0.45-0.55-0.66-0.85l1.17-1.08c0.18,0.26,0.38,0.5,0.57,0.73
				c0.28,0.34,0.55,0.68,0.8,1.06c0.44,0.69,0.83,1.4,1.17,2.1C75.22,81.58,75.99,83.38,75.94,85.27z"/>
			<path class="st1" d="M75.72,74.47c0,0-0.01-0.65,0.02-1.77c-0.01-0.56,0.09-1.24,0.19-2.04c0.07-0.8,0.25-1.68,0.5-2.62
				c0.19-0.97,0.59-1.93,0.95-2.99c0.45-1,0.86-2.11,1.49-3.11c0.56-1.05,1.23-2.07,1.94-3.07c0.36-0.5,0.76-0.96,1.14-1.44
				c0.21-0.25,0.35-0.47,0.62-0.73l0.62-0.65c0.79-0.86,1.82-1.66,2.75-2.37c0.49-0.33,0.97-0.65,1.45-0.97
				c0.5-0.27,0.99-0.53,1.48-0.79c1.04-0.52,1.97-0.76,2.89-1.12c0.89-0.32,1.81-0.66,2.61-0.88c1.61-0.49,2.98-0.82,3.92-1.09
				c0.95-0.25,1.5-0.37,1.5-0.37s-0.51,0.27-1.41,0.69c-0.91,0.41-2.19,1.04-3.76,1.72c-0.79,0.33-1.56,0.73-2.48,1.14
				c-0.86,0.42-1.88,0.82-2.73,1.3c-0.45,0.27-0.91,0.54-1.37,0.82c-0.44,0.32-0.89,0.64-1.34,0.96c-0.88,0.7-1.7,1.33-2.53,2.25
				l-0.63,0.64c-0.17,0.15-0.37,0.43-0.55,0.64c-0.37,0.45-0.76,0.89-1.11,1.35c-0.68,0.95-1.38,1.85-1.94,2.83
				c-0.62,0.93-1.08,1.93-1.58,2.84c-0.39,0.97-0.87,1.85-1.13,2.74c-0.31,0.87-0.6,1.68-0.76,2.42c-0.2,0.73-0.38,1.38-0.44,1.94
				C75.84,73.84,75.72,74.47,75.72,74.47z"/>
			<path class="st1" d="M63.84,29.69c0,0,0.08,0.08,0.22,0.22c0.13,0.16,0.39,0.32,0.67,0.53c0.61,0.38,1.55,0.96,2.57,1.7
				c0.52,0.37,1.09,0.75,1.67,1.22c0.57,0.5,1.18,1.02,1.78,1.59c0.31,0.28,0.62,0.57,0.93,0.86c0.36,0.42,0.55,0.7,0.83,1.07
				c0.55,0.64,0.99,1.54,1.46,2.4c0.47,0.87,0.71,1.79,1.06,2.67c0.28,0.9,0.46,1.82,0.67,2.69c0.13,0.89,0.26,1.76,0.34,2.58
				c0.05,0.83,0.07,1.61,0.09,2.32c-0.02,0.72-0.08,1.38-0.12,1.95c-0.02,0.58-0.14,1.08-0.2,1.49c-0.14,0.82-0.24,1.27-0.24,1.27
				s-0.03-0.48-0.05-1.3c-0.02-0.41,0.01-0.9-0.07-1.47c-0.06-0.56-0.12-1.2-0.18-1.88c-0.11-0.68-0.23-1.42-0.33-2.19
				c-0.16-0.76-0.34-1.56-0.51-2.4c-0.24-0.8-0.49-1.63-0.75-2.47c-0.34-0.78-0.59-1.68-1-2.39c-0.38-0.74-0.7-1.5-1.27-2.21
				c-0.24-0.34-0.48-0.68-0.71-1.01c-0.28-0.29-0.56-0.58-0.84-0.87c-0.55-0.57-1.07-1.14-1.57-1.68c-0.54-0.52-1.04-1-1.51-1.45
				c-0.93-0.92-1.7-1.69-2.24-2.22C64,30.12,63.86,29.68,63.84,29.69z"/>
			<path class="st1" d="M53.95,55.07c0,0,0.4,0.07,1.09,0.24c0.68,0.18,1.67,0.39,2.83,0.73c0.15,0.04,0.3,0.08,0.45,0.13
				c0.25,0.08,0.32,0.14,0.5,0.21c0.3,0.14,0.6,0.29,0.92,0.45c0.32,0.15,0.64,0.31,0.97,0.47c0.33,0.19,0.65,0.45,0.98,0.68
				c0.65,0.5,1.4,0.94,1.97,1.6c0.59,0.64,1.28,1.18,1.8,1.94c0.52,0.75,1.11,1.39,1.56,2.22c0.44,0.75,0.85,1.5,1.24,2.24
				c0.36,0.8,0.67,1.59,0.97,2.33c0.34,0.72,0.46,1.49,0.66,2.15c0.17,0.68,0.38,1.27,0.42,1.85c0.07,0.56,0.13,1.06,0.18,1.46
				c0.09,0.81,0.13,1.26,0.13,1.26s-0.16-0.43-0.41-1.19c-0.12-0.37-0.27-0.83-0.43-1.35c-0.14-0.53-0.46-1.06-0.69-1.68
				c-0.28-0.6-0.48-1.3-0.86-1.93c-0.35-0.65-0.71-1.33-1.06-2.05c-0.44-0.7-0.89-1.42-1.35-2.15c-0.39-0.7-0.99-1.32-1.47-1.99
				c-0.46-0.71-1.1-1.23-1.64-1.84c-0.54-0.63-1.14-1.08-1.71-1.57c-0.29-0.24-0.56-0.49-0.85-0.71c-0.31-0.2-0.62-0.4-0.92-0.59
				c-0.3-0.19-0.59-0.38-0.87-0.56c-0.12-0.08-0.32-0.23-0.37-0.24c-0.14-0.07-0.29-0.14-0.42-0.2c-1.11-0.52-2.01-1.03-2.65-1.35
				C54.31,55.28,53.95,55.07,53.95,55.07z"/>
			<path class="st2" d="M63.42,32.24c0,0-4,17.89,9.38,24.92C72.42,44.31,63.42,32.24,63.42,32.24z"/>
			<path class="st2" d="M87.61,65.55c-0.78-0.23-1.58-0.37-2.41-0.29c-0.91,0.09-2.01,0.7-2.88,0.67c-0.7-0.03-0.96-0.37-0.32-1.15
				c2.92-3.56,7.15-2.66,10.88-2.23c1.22,0.14,3.07,0.59,2.77,2.47c-0.17,1.03-1.2,1.53-2.05,1.73
				C91.45,67.26,89.57,66.13,87.61,65.55z"/>
			<path class="st2" d="M98.15,58.93c-0.55,0.13-1.13,0.13-1.66,0.1c-0.99-0.05-1.92-0.28-2.86-0.5c-1.13-0.27-2.35-0.55-3.51-0.5
				c-0.32,0.01-1.79,0.46-1.59-0.37c0.13-0.54,1.56-1.14,1.97-1.33c0.83-0.38,1.73-0.53,2.61-0.62c1.43-0.15,2.87-0.18,4.32-0.34
				c0.62-0.07,1.53-0.19,2.1,0.14c0.9,0.53,0.46,2.18-0.19,2.8C99,58.63,98.59,58.82,98.15,58.93z"/>
			<path class="st2" d="M87.68,70.6c0.74,0.28,1.27,0.63,0.92,0.98c-0.49,0.49-1.19,0.25-1.76,0.34c-0.49,0.08-0.93,0.21-1.43,0.25
				c-1.39,0.1-2.8,0.3-4.13,0.81c-0.66,0.25-3.4,2.69-3.57,0.96c-0.15-1.54,2.45-3.63,3.48-4.12c1.32-0.63,2.67-0.3,4,0.08
				C85.4,69.97,86.72,70.23,87.68,70.6z"/>
			<path class="st2" d="M55.36,57.9c2.46,0.8,9.31,1.44,13.97,17.16C61.83,75.08,55.36,57.9,55.36,57.9z"/>
			<path class="st3" d="M76.03,75.69c0,0,0.15-0.65,0.44-1.77c0.32-1.11,0.72-2.72,1.38-4.59c0.3-0.95,0.72-1.93,1.15-2.99
				c0.49-1.02,0.96-2.13,1.61-3.17c0.59-1.08,1.33-2.11,2.08-3.13c0.41-0.48,0.82-0.97,1.23-1.46c0.48-0.56,0.9-0.89,1.35-1.34
				c0.84-0.87,1.94-1.58,2.93-2.32c1.03-0.63,2.05-1.24,3.06-1.72c2.02-1.01,3.94-1.73,5.57-2.4c0.81-0.33,1.56-0.64,2.22-0.9
				c0.67-0.26,1.23-0.52,1.69-0.76c0.93-0.44,1.48-0.68,1.48-0.68s-0.48,0.37-1.35,0.98c-0.43,0.31-0.96,0.67-1.59,1.04
				c-0.63,0.38-1.33,0.83-2.12,1.23c-1.56,0.87-3.43,1.77-5.34,2.86c-0.98,0.51-1.9,1.18-2.88,1.77c-0.9,0.71-1.84,1.29-2.71,2.22
				c-0.42,0.41-0.96,0.85-1.28,1.24c-0.4,0.45-0.79,0.91-1.18,1.36c-0.72,0.96-1.48,1.87-2.07,2.88c-0.65,0.96-1.18,1.98-1.71,2.92
				c-0.47,0.99-0.97,1.89-1.35,2.78c-0.8,1.75-1.45,3.24-1.88,4.3C76.3,75.1,76.03,75.69,76.03,75.69z"/>
			<path class="st3" d="M78.33,70.02c0,0,0.1-0.27,0.28-0.73c0.07-0.24,0.3-0.46,0.52-0.76c0.23-0.32,0.55-0.5,0.89-0.77
				c0.36-0.19,0.75-0.44,1.2-0.56c0.44-0.15,0.91-0.27,1.4-0.33c0.49-0.05,1-0.11,1.51-0.07l0.39,0.02l0.41,0.06l0.73,0.12
				c0.48,0.07,0.98,0.23,1.48,0.39c0.51,0.15,0.95,0.33,1.39,0.48c0.45,0.15,0.87,0.33,1.26,0.43c0.39,0.1,0.76,0.28,1.11,0.33
				c0.35,0.07,0.68,0.15,0.97,0.22c0.3,0.03,0.55,0.06,0.76,0.08c0.44,0.06,0.69,0.1,0.69,0.1s-0.23,0.1-0.66,0.25
				c-0.21,0.07-0.48,0.17-0.79,0.24c-0.31,0.04-0.66,0.08-1.05,0.1c-0.39,0.05-0.81-0.01-1.26-0.05c-0.46-0.03-0.9-0.11-1.35-0.22
				c-0.46-0.11-0.95-0.2-1.38-0.32c-0.44-0.13-0.9-0.25-1.41-0.31l-0.73-0.15l-0.32-0.06l-0.34-0.03c-0.46-0.05-0.91-0.08-1.34-0.08
				c-0.44,0.01-0.86,0.01-1.25,0.07c-0.4,0.03-0.75,0.15-1.09,0.22c-0.3,0.15-0.65,0.21-0.87,0.38c-0.22,0.17-0.48,0.24-0.63,0.44
				C78.53,69.83,78.33,70.02,78.33,70.02z"/>
			<path class="st3" d="M82.81,62.04c0,0,0.21-0.2,0.58-0.56c0.19-0.16,0.4-0.4,0.7-0.59c0.29-0.2,0.62-0.43,0.99-0.67
				c0.38-0.2,0.8-0.41,1.25-0.61c0.49-0.16,0.91-0.32,1.54-0.45c0.51-0.04,1.01-0.14,1.56-0.13c0.57,0.05,1.18,0.08,1.73,0.18
				c0.54,0.12,1.07,0.23,1.6,0.35c0.26,0.06,0.51,0.12,0.76,0.19l0.34,0.09l0.38,0.07c0.49,0.07,1,0.25,1.4,0.25
				c0.42,0.01,0.83,0.13,1.21,0.08c0.38-0.03,0.74-0.04,1.07-0.04c0.32-0.05,0.6-0.1,0.83-0.14c0.48-0.07,0.75-0.11,0.75-0.11
				s-0.23,0.16-0.65,0.43c-0.21,0.13-0.47,0.31-0.78,0.46c-0.32,0.12-0.69,0.26-1.1,0.39c-0.41,0.16-0.88,0.16-1.38,0.22
				c-0.52,0.08-0.97,0-1.49-0.03L93.7,61.4l-0.42-0.06c-0.26-0.04-0.52-0.08-0.79-0.13c-0.51-0.09-1.04-0.19-1.56-0.28
				c-0.52-0.11-0.98-0.14-1.46-0.22c-0.52-0.01-1.04-0.02-1.54-0.02c-0.46,0.06-0.9,0.12-1.32,0.17c-0.43,0.12-0.84,0.2-1.23,0.29
				c-0.37,0.13-0.72,0.24-1.03,0.33c-0.32,0.08-0.59,0.23-0.81,0.3C83.07,61.95,82.81,62.04,82.81,62.04z"/>
			<path class="st3" d="M91.77,54.07c0,0,0.64-0.2,1.61-0.38c0.24-0.04,0.5-0.09,0.78-0.12c0.28-0.01,0.55-0.13,0.85-0.17
				c0.58-0.13,1.19-0.21,1.81-0.3c0.61-0.16,1.21-0.32,1.8-0.42c0.28-0.08,0.58-0.07,0.83-0.18c0.26-0.09,0.51-0.16,0.74-0.23
				c0.93-0.25,1.61-0.36,1.61-0.36s-0.51,0.46-1.37,1.05c-0.21,0.15-0.45,0.3-0.7,0.45c-0.25,0.18-0.54,0.25-0.83,0.36
				c-0.59,0.22-1.23,0.41-1.88,0.6c-0.66,0.07-1.33,0.14-1.95,0.16c-0.63,0.06-1.18-0.03-1.67-0.11
				C92.41,54.27,91.77,54.07,91.77,54.07z"/>
			<path class="st3" d="M65.33,33.57c0,0,0.28,0.33,0.72,0.93c0.43,0.62,1.11,1.44,1.81,2.53c0.71,1.08,1.55,2.35,2.31,3.82
				c0.38,0.73,0.83,1.45,1.15,2.28c0.35,0.81,0.7,1.63,1.06,2.45c0.28,0.86,0.56,1.73,0.83,2.58c0.32,0.83,0.4,1.74,0.6,2.57
				c0.18,0.84,0.34,1.65,0.38,2.44c0.08,0.79,0.13,1.53,0.17,2.21c0.08,0.68,0,1.31-0.01,1.87c-0.03,0.55-0.05,1.04-0.07,1.43
				c-0.04,0.79-0.09,1.24-0.09,1.24s-0.09-0.45-0.2-1.23c-0.05-0.39-0.12-0.86-0.19-1.4c-0.09-0.54-0.13-1.15-0.28-1.8
				c-0.14-0.65-0.28-1.35-0.42-2.09c-0.11-0.75-0.35-1.5-0.56-2.29c-0.23-0.78-0.39-1.61-0.69-2.41c-0.27-0.8-0.56-1.62-0.84-2.44
				c-0.65-1.59-1.28-3.2-1.98-4.66c-0.35-0.73-0.64-1.47-0.98-2.13c-0.33-0.66-0.63-1.31-0.9-1.9c-0.55-1.19-1.02-2.19-1.34-2.89
				C65.49,33.98,65.33,33.57,65.33,33.57z"/>
			<path class="st3" d="M65.89,49.62c0.01-0.01,0.09,0.17,0.3,0.36c0.18,0.19,0.54,0.38,0.94,0.59c0.21,0.1,0.44,0.21,0.68,0.33
				c0.25,0.11,0.5,0.23,0.77,0.35c0.55,0.24,1.12,0.54,1.69,0.84c0.28,0.14,0.55,0.29,0.83,0.43c0.29,0.14,0.56,0.33,0.83,0.5
				c0.53,0.37,1,0.77,1.33,1.23c0.17,0.21,0.31,0.43,0.39,0.66c0.1,0.21,0.18,0.38,0.21,0.56c0.08,0.33,0.1,0.5,0.1,0.5
				s-0.12-0.14-0.29-0.38c-0.17-0.24-0.47-0.51-0.84-0.78c-0.37-0.27-0.84-0.52-1.35-0.77c-0.54-0.25-1.12-0.52-1.7-0.79
				c-0.56-0.32-1.12-0.64-1.63-0.98c-0.24-0.15-0.53-0.35-0.74-0.53c-0.23-0.18-0.44-0.36-0.63-0.55c-0.38-0.37-0.64-0.76-0.78-1.08
				C65.88,49.81,65.91,49.62,65.89,49.62z"/>
			<path class="st3" d="M63.42,34.75c0,0,0.05,0.14,0.12,0.39c0.02,0.14,0.12,0.25,0.19,0.39c0.06,0.14,0.2,0.28,0.3,0.45
				c0.23,0.33,0.56,0.64,0.92,0.98c0.18,0.17,0.37,0.33,0.57,0.5c0.21,0.18,0.38,0.32,0.6,0.48c0.42,0.34,0.83,0.59,1.25,0.91
				c0.41,0.3,0.77,0.65,1.06,0.98c0.28,0.33,0.46,0.66,0.56,0.91c0.1,0.24,0.14,0.38,0.14,0.38s-0.1-0.1-0.26-0.28
				c-0.14-0.19-0.41-0.39-0.71-0.63c-0.3-0.25-0.7-0.44-1.11-0.69c-0.41-0.23-0.91-0.53-1.33-0.85c-0.88-0.68-1.64-1.56-2.02-2.4
				c-0.09-0.21-0.18-0.39-0.21-0.6c-0.03-0.19-0.09-0.35-0.07-0.48C63.4,34.9,63.42,34.75,63.42,34.75z"/>
			<path class="st3" d="M63.88,41.86c0,0,0.13,0.14,0.34,0.39c0.21,0.27,0.55,0.55,0.96,0.87c0.83,0.66,2.12,1.16,3.39,1.84
				c1.24,0.66,2.54,1.45,3.25,2.44c0.19,0.22,0.33,0.47,0.42,0.7c0.11,0.22,0.19,0.41,0.23,0.59c0.09,0.35,0.13,0.54,0.13,0.54
				s-0.09-0.17-0.26-0.46c-0.14-0.3-0.44-0.66-0.82-1.02c-0.75-0.76-2.01-1.33-3.27-2.01c-1.23-0.65-2.54-1.37-3.33-2.24
				c-0.4-0.41-0.68-0.86-0.82-1.15C63.97,42.04,63.88,41.86,63.88,41.86z"/>
			<path class="st3" d="M76.69,77.02c0,0,0.44-0.1,1.21-0.24c0.39-0.07,0.85-0.14,1.39-0.24c0.54-0.06,1.13-0.26,1.77-0.43
				c0.62-0.17,1.29-0.35,2-0.54c0.72-0.29,1.48-0.6,2.26-0.92c0.81-0.27,1.54-0.74,2.34-1.09c0.4-0.19,0.79-0.38,1.19-0.57
				l1.17-0.64c0.85-0.39,1.5-0.93,2.25-1.38c0.68-0.57,1.43-1.02,2.05-1.63c0.65-0.56,1.27-1.12,1.82-1.7
				c0.58-0.55,1.08-1.13,1.56-1.65c0.49-0.51,0.89-1.03,1.28-1.46c0.39-0.43,0.71-0.83,0.97-1.16c0.53-0.65,0.85-1.02,0.85-1.02
				s-0.21,0.45-0.62,1.22c-0.2,0.38-0.45,0.85-0.77,1.37c-0.31,0.51-0.64,1.13-1.08,1.72c-0.43,0.6-0.87,1.28-1.43,1.91
				c-0.27,0.32-0.55,0.66-0.83,1c-0.31,0.31-0.62,0.63-0.94,0.95c-0.63,0.67-1.37,1.24-2.1,1.85c-0.78,0.51-1.6,1.15-2.4,1.54
				l-1.24,0.64c-0.42,0.19-0.84,0.38-1.25,0.56c-0.83,0.36-1.65,0.75-2.46,0.98c-0.8,0.24-1.58,0.48-2.32,0.7
				c-0.85,0.15-1.54,0.21-2.23,0.29c-0.68,0.09-1.29,0.15-1.83,0.09c-0.54-0.03-1.02-0.05-1.4-0.07
				C77.14,77.07,76.69,77.02,76.69,77.02z"/>
			<path class="st3" d="M59.61,68c0,0,0.74,0.61,1.75,1.63c0.5,0.51,1.06,1.17,1.66,1.81c0.3,0.33,0.62,0.65,0.92,1
				c0.3,0.35,0.66,0.61,0.99,0.93l0.49,0.47l0.12,0.12c0.01,0.01,0.08,0.07,0.02,0.03l0.07,0.05l0.29,0.19
				c0.38,0.23,0.74,0.55,1.1,0.75c0.71,0.36,1.38,0.74,2.01,1c0.62,0.29,1.14,0.54,1.5,0.71c0.36,0.17,0.57,0.29,0.57,0.29
				s-0.9-0.03-2.24-0.29c-0.67-0.1-1.45-0.37-2.3-0.71c-0.41-0.19-0.77-0.42-1.17-0.66l-0.29-0.18l-0.07-0.04
				c-0.1-0.07-0.07-0.05-0.11-0.09l-0.13-0.12l-0.55-0.5c-0.35-0.35-0.74-0.66-1.05-1.04c-0.31-0.37-0.6-0.76-0.89-1.12
				c-0.58-0.73-1.01-1.46-1.42-2.08C60.1,68.89,59.61,68,59.61,68z"/>
		</g>
	</g>
	<path class="st4" d="M68.39,127.23c0,0,35.82,8.05,55.34-33.87c0,0,4.75-12.38,4.83-15.26c0,0-0.18-0.85-2.81-0.48
		c0,0-0.7-0.2-1.82,2.15c0,0-3.43,9.49-5.65,11.3c0,0-4.41,5.61-10.95,9.57c0,0-4.71,3.46-11.23,4.91c0,0-3.8-0.19-5.34-3.1
		c0,0-0.15-2.29,5.93-6.63c0,0,3.14-2.11,5-6.25c0,0,0.7-3.71-4.01-3.15c0,0-10.4,4.78-14.38,7.07c0,0-5.98,3.07-8.2,5.42
		c0,0-2.48,1.57-4.19,8.54L68.39,127.23z"/>
	<path class="st4" d="M80.28,107.47c-1.61-7-4.07-8.62-4.07-8.62c-2.19-2.39-8.13-5.58-8.13-5.58c-3.95-2.37-14.28-7.34-14.28-7.34
		c-4.7-0.65-4.06,3.07-4.06,3.07c1.8,4.17,4.91,6.34,4.91,6.34c6.01,4.46,5.84,6.74,5.84,6.74c-1.59,2.88-5.39,3-5.39,3
		c-6.5-1.57-11.16-5.12-11.16-5.12c-6.48-4.08-10.81-9.78-10.81-9.78c-2.19-1.85-5.49-11.4-5.49-11.4
		c-1.09-2.37-1.79-2.18-1.79-2.18c-2.63-0.42-2.82,0.43-2.82,0.43c0.04,2.88,4.61,15.35,4.61,15.35
		c18.92,42.29,54.85,34.93,54.85,34.93L80.28,107.47z"/>
	<path class="st5" d="M27.31,75.24l-4.83-0.51c0,0-1.32-24.42,14.28-41.59s28.84-17.17,38.44-17.25c0,0,17.07,0.43,28.56,12.68
		c0,0-17.2-15.39-39.76-9.13c0,0-21.53,4.57-32.07,30.69C31.92,50.13,27.61,56.12,27.31,75.24z"/>
	<path class="st6" d="M124.57,74.73l4.83-0.51c0,0,0.83-25.64-14.28-43.37C100.08,13.18,86.28,10.9,76.71,10.82
		c0,0-11.33-1.34-25.04,7.1c0,0,18.3-8.93,36.22-2.03c0,0,22.52,7.23,32.07,33.73C119.96,49.62,123.82,55.89,124.57,74.73z"/>
	<g>
		<path class="st7" d="M154.62,73.34V42.32h7.58c2.33,0,4.39,0.61,6.19,1.8c1.8,1.19,3.19,2.89,4.15,5.1
			c0.99,2.21,1.47,4.72,1.49,7.58v1.98c0,2.92-0.48,5.48-1.47,7.68s-2.37,3.88-4.2,5.07c-1.82,1.17-3.93,1.78-6.33,1.8L154.62,73.34
			L154.62,73.34z M158.18,45.67v24.32h3.73c2.72,0,4.85-0.99,6.37-2.94c1.52-1.95,2.28-4.74,2.28-8.37v-1.83
			c0-3.53-0.72-6.26-2.15-8.22s-3.47-2.94-6.11-2.97L158.18,45.67L158.18,45.67z"/>
		<path class="st7" d="M193.85,65.22H182.6l-2.53,8.12h-3.65l10.26-31.02h3.1l10.26,31.02h-3.62L193.85,65.22z M183.66,61.87h9.14
			l-4.57-14.51L183.66,61.87z"/>
		<path class="st7" d="M207.21,61.19v12.15h-3.54V42.32h9.91c2.94,0,5.25,0.86,6.92,2.59c1.67,1.72,2.5,4.03,2.5,6.87
			c0,3.02-0.81,5.33-2.44,6.95c-1.63,1.62-3.95,2.43-7.01,2.43h-6.35V61.19z M207.21,57.84h6.37c1.89,0,3.34-0.51,4.35-1.55
			s1.52-2.51,1.52-4.46c0-1.85-0.51-3.32-1.52-4.44c-1.01-1.12-2.39-1.67-4.15-1.72h-6.57L207.21,57.84L207.21,57.84z"/>
		<g>
			<path class="st7" d="M143.35,38.37v6.76h4.52v3.69h-4.52v17.35c0,1.12,0.2,1.96,0.6,2.52s1.09,0.84,2.06,0.84
				c0.48,0,1.13-0.1,1.97-0.31v3.85c-1.09,0.34-2.15,0.51-3.18,0.51c-1.85,0-3.24-0.65-4.18-1.94c-0.94-1.29-1.41-3.12-1.41-5.5
				V48.83h-4.41v-3.69h4.41v-6.76H143.35z"/>
		</g>
	</g>
	<g>
		<path class="st8" d="M144.27,85.64c-0.09,0.91-0.4,1.62-0.88,2.13c-0.48,0.51-1.14,0.74-1.95,0.74c-0.88,0-1.6-0.36-2.13-1.09
			c-0.53-0.74-0.79-1.72-0.79-2.94v-0.84c0-0.81,0.13-1.52,0.37-2.13c0.24-0.61,0.59-1.09,1.05-1.39c0.46-0.3,0.99-0.48,1.58-0.48
			c0.79,0,1.43,0.25,1.91,0.76c0.48,0.51,0.77,1.22,0.83,2.13h-0.99c-0.09-0.68-0.26-1.19-0.55-1.5c-0.29-0.3-0.68-0.46-1.21-0.46
			c-0.64,0-1.12,0.28-1.49,0.81c-0.37,0.53-0.53,1.32-0.53,2.31v0.84c0,0.94,0.18,1.7,0.51,2.23c0.33,0.56,0.81,0.84,1.43,0.84
			c0.55,0,0.97-0.15,1.27-0.43c0.31-0.28,0.48-0.79,0.59-1.5h0.97V85.64z"/>
		<path class="st8" d="M145.22,85.1c0-0.63,0.11-1.19,0.33-1.7c0.22-0.51,0.51-0.89,0.9-1.17c0.4-0.28,0.81-0.41,1.32-0.41
			c0.77,0,1.36,0.3,1.85,0.91s0.7,1.42,0.7,2.41v0.08c0,0.63-0.11,1.19-0.31,1.67c-0.2,0.48-0.51,0.89-0.9,1.17
			c-0.4,0.28-0.83,0.41-1.34,0.41c-0.75,0-1.36-0.3-1.85-0.91c-0.48-0.61-0.7-1.42-0.7-2.41V85.1z M146.19,85.23
			c0,0.71,0.15,1.29,0.44,1.72c0.29,0.43,0.68,0.66,1.14,0.66c0.48,0,0.88-0.23,1.16-0.66c0.29-0.43,0.42-1.04,0.42-1.85
			c0-0.71-0.15-1.27-0.44-1.72s-0.68-0.66-1.16-0.66c-0.46,0-0.86,0.23-1.14,0.66S146.19,84.42,146.19,85.23z"/>
		<path class="st8" d="M152.38,81.93l0.02,0.81c0.42-0.61,0.99-0.94,1.67-0.94c1.19,0,1.78,0.76,1.78,2.31v4.26h-0.94v-4.26
			c0-0.46-0.09-0.81-0.29-1.04c-0.2-0.23-0.46-0.33-0.83-0.33c-0.31,0-0.57,0.1-0.81,0.28c-0.24,0.18-0.42,0.43-0.55,0.76v4.59
			h-0.94v-6.44L152.38,81.93L152.38,81.93z"/>
		<path class="st8" d="M158.2,81.93l0.02,0.81c0.42-0.61,0.99-0.94,1.67-0.94c1.19,0,1.78,0.76,1.78,2.31v4.26h-0.94v-4.26
			c0-0.46-0.09-0.81-0.29-1.04c-0.2-0.23-0.46-0.33-0.83-0.33c-0.31,0-0.57,0.1-0.81,0.28s-0.42,0.43-0.55,0.76v4.59h-0.94v-6.44
			L158.2,81.93L158.2,81.93z"/>
		<path class="st8" d="M165.43,88.5c-0.75,0-1.36-0.28-1.85-0.86c-0.48-0.58-0.7-1.34-0.7-2.31v-0.2c0-0.63,0.11-1.22,0.31-1.7
			c0.2-0.48,0.51-0.89,0.88-1.17c0.37-0.28,0.79-0.43,1.23-0.43c0.72,0,1.3,0.28,1.69,0.84c0.4,0.56,0.59,1.34,0.59,2.36v0.46h-3.78
			c0.02,0.63,0.18,1.14,0.48,1.55c0.31,0.41,0.7,0.58,1.16,0.58c0.33,0,0.62-0.08,0.86-0.23s0.44-0.38,0.62-0.63l0.57,0.53
			C167.07,88.07,166.37,88.5,165.43,88.5z M165.32,82.72c-0.4,0-0.7,0.15-0.97,0.48c-0.26,0.33-0.42,0.79-0.48,1.37h2.79V84.5
			c-0.02-0.56-0.15-0.99-0.4-1.29C166.02,82.9,165.71,82.72,165.32,82.72z"/>
		<path class="st8" d="M170.94,87.59c0.33,0,0.64-0.13,0.9-0.36s0.4-0.53,0.42-0.89h0.9c-0.02,0.38-0.13,0.71-0.33,1.04
			c-0.2,0.33-0.48,0.61-0.81,0.79c-0.33,0.18-0.7,0.3-1.08,0.3c-0.77,0-1.36-0.3-1.8-0.89s-0.68-1.39-0.68-2.41V85
			c0-0.63,0.11-1.19,0.31-1.67c0.2-0.48,0.48-0.86,0.86-1.14c0.37-0.28,0.81-0.41,1.32-0.41c0.62,0,1.14,0.23,1.56,0.66
			s0.64,0.99,0.66,1.67h-0.9c-0.02-0.41-0.15-0.76-0.42-1.01s-0.55-0.41-0.9-0.41c-0.48,0-0.86,0.2-1.12,0.61
			c-0.26,0.41-0.4,0.99-0.4,1.75v0.2c0,0.74,0.13,1.32,0.4,1.72S170.46,87.59,170.94,87.59z"/>
		<path class="st8" d="M175.51,80.39v1.55h1.03v0.86h-1.03v3.98c0,0.25,0.04,0.46,0.13,0.58c0.09,0.13,0.24,0.2,0.48,0.2
			c0.11,0,0.26-0.03,0.46-0.08v0.89c-0.24,0.08-0.51,0.13-0.72,0.13c-0.42,0-0.75-0.15-0.97-0.46c-0.22-0.3-0.33-0.71-0.33-1.27
			V82.8h-1.01v-0.86h1.01v-1.55H175.51z"/>
		<path class="st8" d="M179.99,88.5c-0.75,0-1.36-0.28-1.85-0.86c-0.48-0.58-0.7-1.34-0.7-2.31v-0.2c0-0.63,0.11-1.22,0.31-1.7
			c0.2-0.48,0.51-0.89,0.88-1.17c0.37-0.28,0.79-0.43,1.23-0.43c0.72,0,1.3,0.28,1.69,0.84c0.4,0.56,0.59,1.34,0.59,2.36v0.46h-3.78
			c0.02,0.63,0.18,1.14,0.48,1.55c0.31,0.41,0.7,0.58,1.16,0.58c0.33,0,0.62-0.08,0.86-0.23s0.44-0.38,0.62-0.63l0.57,0.53
			C181.62,88.07,180.91,88.5,179.99,88.5z M179.86,82.72c-0.4,0-0.7,0.15-0.97,0.48c-0.26,0.33-0.42,0.79-0.48,1.37h2.79V84.5
			c-0.02-0.56-0.15-0.99-0.4-1.29C180.56,82.9,180.25,82.72,179.86,82.72z"/>
		<path class="st8" d="M183.02,85.1c0-0.99,0.2-1.78,0.62-2.38s0.94-0.91,1.58-0.91c0.66,0,1.16,0.25,1.56,0.76v-3.35h0.94v9.13
			h-0.88l-0.04-0.68c-0.37,0.53-0.9,0.81-1.58,0.81c-0.64,0-1.16-0.3-1.58-0.91s-0.62-1.39-0.62-2.38L183.02,85.1L183.02,85.1z
			 M183.99,85.23c0,0.74,0.13,1.29,0.4,1.72c0.26,0.43,0.62,0.61,1.08,0.61c0.62,0,1.05-0.3,1.32-0.94v-2.94
			c-0.29-0.61-0.72-0.91-1.32-0.91c-0.46,0-0.83,0.2-1.1,0.63S183.99,84.42,183.99,85.23z"/>
		<path class="st8" d="M196.09,84.55h-3.14v3.83h-0.99v-8.65h4.63v0.94h-3.65v2.97h3.14V84.55z"/>
		<path class="st8" d="M200.9,88.38c-0.07-0.13-0.11-0.36-0.13-0.68c-0.44,0.53-0.97,0.79-1.58,0.79c-0.55,0-1.01-0.18-1.36-0.53
			s-0.53-0.81-0.53-1.37c0-0.66,0.22-1.19,0.66-1.57c0.44-0.38,1.05-0.56,1.87-0.56h0.92v-0.51c0-0.38-0.11-0.68-0.31-0.91
			c-0.2-0.23-0.48-0.33-0.88-0.33c-0.33,0-0.62,0.1-0.86,0.3c-0.24,0.2-0.35,0.43-0.35,0.71h-0.97c0-0.33,0.09-0.63,0.29-0.94
			c0.2-0.3,0.46-0.53,0.81-0.71c0.35-0.18,0.7-0.25,1.12-0.25c0.64,0,1.14,0.18,1.52,0.56c0.37,0.38,0.55,0.89,0.57,1.52v2.97
			c0,0.58,0.07,1.07,0.2,1.42v0.1H200.9z M199.32,87.54c0.31,0,0.57-0.1,0.86-0.28c0.29-0.18,0.46-0.41,0.57-0.68v-1.32H200
			c-1.16,0-1.76,0.41-1.76,1.19c0,0.36,0.11,0.61,0.31,0.81S199.01,87.54,199.32,87.54z"/>
		<path class="st8" d="M205.89,82.92c-0.15-0.03-0.31-0.05-0.46-0.05c-0.62,0-1.05,0.3-1.27,0.91v4.57h-0.94v-6.44h0.92l0.02,0.74
			c0.31-0.58,0.75-0.86,1.32-0.86c0.18,0,0.33,0.03,0.42,0.08L205.89,82.92L205.89,82.92z"/>
		<path class="st8" d="M207.67,81.93l0.02,0.71c0.42-0.56,0.97-0.84,1.65-0.84c0.77,0,1.32,0.36,1.58,1.04
			c0.18-0.3,0.42-0.56,0.72-0.76c0.31-0.2,0.64-0.28,1.05-0.28c1.23,0,1.85,0.74,1.87,2.23v4.31h-0.94v-4.24
			c0-0.46-0.09-0.81-0.26-1.04s-0.48-0.33-0.92-0.33c-0.35,0-0.64,0.13-0.88,0.36s-0.37,0.58-0.42,0.99v4.26h-0.97v-4.21
			c0-0.94-0.4-1.39-1.19-1.39c-0.62,0-1.05,0.3-1.27,0.91v4.69h-0.94v-6.44h0.9L207.67,81.93L207.67,81.93z"/>
		<path class="st8" d="M219.27,86.68c0-0.3-0.09-0.53-0.29-0.68c-0.2-0.15-0.53-0.3-1.01-0.43c-0.48-0.13-0.86-0.25-1.14-0.43
			c-0.29-0.18-0.48-0.36-0.64-0.58s-0.2-0.51-0.2-0.81c0-0.53,0.2-0.96,0.57-1.34c0.37-0.38,0.88-0.56,1.47-0.56
			c0.64,0,1.14,0.18,1.54,0.56c0.4,0.38,0.59,0.86,0.59,1.45h-0.97c0-0.3-0.11-0.56-0.33-0.79c-0.22-0.23-0.51-0.33-0.83-0.33
			c-0.35,0-0.62,0.08-0.81,0.25c-0.2,0.18-0.29,0.41-0.29,0.68c0,0.25,0.09,0.46,0.26,0.61s0.51,0.25,0.99,0.38
			c0.48,0.13,0.86,0.28,1.16,0.43c0.31,0.15,0.51,0.38,0.66,0.61s0.22,0.53,0.22,0.89c0,0.58-0.2,1.04-0.59,1.37
			c-0.4,0.33-0.92,0.53-1.56,0.53c-0.44,0-0.83-0.1-1.19-0.28c-0.35-0.18-0.62-0.43-0.81-0.76c-0.2-0.33-0.29-0.68-0.29-1.07h0.94
			c0.02,0.38,0.15,0.66,0.37,0.89c0.22,0.23,0.55,0.33,0.94,0.33c0.35,0,0.66-0.08,0.86-0.25
			C219.11,87.16,219.27,86.96,219.27,86.68z"/>
	</g>
</g>
</svg>
